PathFileType	4	(X/Y/Z)	Patient4_TMGait_0pt3_02_right_18.trc.trc
DataRate	CameraRate	NumFrames	NumMarkers	Units	OrigDataRate	OrigDataStartFrame	OrigNumFrames
48.780487804878	48.780487804878	4	33	mm	48.780487804878	124	       141
Frame#	Time	Sacral			L.Shoulder			Chest			R.Shoulder			Neck			R.ASIS			L.ASIS			R.Thigh.Superior			R.Thigh.Lateral			R.Thigh.Inferior			R.Patella			L.Thigh.Superior			L.Thigh.Lateral			L.Thigh.Inferior			L.Patella			L.Shank.Superior			L.Shank.Lateral			L.Shank.Inferior			R.Shank.Superior			R.Shank.Lateral			R.Shank.Inferior			R.Heel			R.Midfoot.Superior			R.Midfoot.Lateral			R.Toe			L.Heel			L.Midfoot.Lateral			L.Midfoot.Superior			L.Toe			L.Elbow			L.Wrist			R.Elbow			R.Wrist			
		X1	Y1	Z1	X2	Y2	Z2	X3	Y3	Z3	X4	Y4	Z4	X5	Y5	Z5	X6	Y6	Z6	X7	Y7	Z7	X8	Y8	Z8	X9	Y9	Z9	X10	Y10	Z10	X11	Y11	Z11	X12	Y12	Z12	X13	Y13	Z13	X14	Y14	Z14	X15	Y15	Z15	X16	Y16	Z16	X17	Y17	Z17	X18	Y18	Z18	X19	Y19	Z19	X20	Y20	Z20	X21	Y21	Z21	X22	Y22	Z22	X23	Y23	Z23	X24	Y24	Z24	X25	Y25	Z25	X26	Y26	Z26	X27	Y27	Z27	X28	Y28	Z28	X29	Y29	Z29	X30	Y30	Z30	X31	Y31	Z31	X32	Y32	Z32	X33	Y33	Z33	

124	36.481500000000	682.349535565214	1000.180307630674	433.693275566702	920.486299088216	1433.814640002884	317.226211490682	972.377271964449	1353.414245237411	495.004823771754	847.111326805851	1423.725784447395	643.548274638561	864.727414862744	1487.555483854954	468.758866346788	884.334576999208	933.235305993742	596.892569337383	924.751977642519	954.240131005528	324.958032835485	957.766506320605	756.170155593301	573.240340607318	896.787149759645	634.666690843279	634.725430785922	988.352410834086	597.466104683480	560.418744567928	1011.142736297680	518.300227930652	574.352672384799	928.679476659115	725.078782076537	362.790587206516	828.409214319985	620.940051510470	288.742538855979	880.917502996753	534.710381545228	367.838853050444	865.494159585321	467.633630134996	378.413953759316	829.921515948061	399.723358020747	367.167179487662	730.346219576637	297.481814086134	309.996452297053	752.694030486612	183.753744782825	389.480539120218	1003.845765491156	427.111406047016	585.456866152738	956.760620268388	310.575155342016	650.644182489291	1030.967199578299	227.837925517652	598.529897020206	947.994486584364	37.053658146430	572.668617037444	1104.882067409125	120.912525673500	610.153041797463	1034.925475150581	37.118877709170	641.946268843088	1233.082813845894	94.947841825170	629.602203618129	603.310894489557	38.092890527774	423.120299878834	680.963312843357	35.202145396271	346.424916716840	764.554652881377	94.986096512057	378.299259534443	893.076468273256	39.496924995648	354.177739916662	1082.256722562930	1161.518208456491	156.526674758526	1336.042179870163	1157.812446554120	211.453028817972	683.679244773362	1104.614375531821	700.433115111310	675.848946427712	844.172616519041	716.975501351241	
125	36.502000000000	684.947131884855	998.636414953018	437.317439143498	921.754539149997	1432.501824504759	321.795037237037	973.767094635356	1352.234701533251	499.664406834842	848.075255213005	1422.251201101912	648.049138390526	865.634445188807	1486.169605389076	473.281278726636	886.811190042401	931.096502555922	600.534347208845	927.442402501140	953.118362094093	328.699159850827	959.922416204721	753.868109514442	576.566607930012	897.161421751030	632.190430860994	636.970381059959	989.556861327681	595.311083746738	563.587468855653	1010.469152019492	515.700959976112	576.911487959342	928.584843311500	723.151640552519	364.658860231567	826.091876813827	620.725980399506	290.495290639273	877.425165489882	533.440383397846	368.790105160757	861.042604703780	466.678279167847	379.289752369230	825.316543017577	399.123049146062	367.930364587800	724.936844093543	297.616343756170	310.527502872641	746.933800338017	183.512106728972	389.770091977382	1003.420527755157	424.390403494610	587.808796716955	955.309820607204	308.093099562276	651.691225484938	1029.366517208977	225.533890345137	599.804097174695	945.025890204479	37.853271224254	572.278119179382	1102.474304217373	118.374909964295	611.399157145030	1030.782125230618	36.753223002875	642.748931473367	1229.344169378971	90.013240267275	632.417548699532	596.985098230606	37.835149907989	423.079869451888	674.726392053399	34.992366504367	346.442426265486	758.325626786891	94.970006770300	378.271602442804	886.921919377840	39.454235999357	354.153851344378	1084.717586430522	1159.953293301210	162.334676786089	1338.322005774953	1162.282756007056	218.474859156627	688.866944064197	1100.643677289462	704.863158390589	690.309376044826	839.962651314649	722.465918394667	
126	36.522500000000	687.738578306974	997.403408086944	441.317884602633	923.197187018722	1431.488886643866	326.733275645676	975.463588587506	1351.207212637884	504.606268001526	849.479323322681	1420.838446954659	652.974638007342	866.786408157741	1484.980787136510	478.272553280228	889.758923177970	929.272418351580	604.336511584962	930.190229954631	952.233183816062	332.545230250741	962.818394334236	752.186950277302	579.507207760271	898.752539767501	630.309503401863	639.038777210738	991.766767517482	593.716859793556	566.336446448667	1011.054731457465	513.343748391141	579.172819849433	928.608475045558	721.349127782844	366.615607750817	823.847208022466	620.637762880036	292.524280889610	874.159237755479	532.302432709792	369.969511784928	856.897422865293	465.762504701060	380.381114756849	820.885771565908	398.617898573597	368.888528515682	719.570073427563	297.972827298039	311.228648949452	741.254852273173	183.396824545936	390.129389937090	1003.596861319847	421.886915772178	589.811299825144	953.767311358397	306.092843837718	652.372117707094	1027.068343368460	223.248814957340	600.592902133082	940.022339018585	38.932600607070	571.393873491314	1098.607260970385	115.515898023436	611.956224317221	1024.665089848497	36.503998138250	643.132663550745	1224.094629960570	84.157039903820	634.608746285867	590.644257624783	37.737806968980	423.032969307954	668.500728402354	34.862283924258	346.476946629421	752.164723635182	95.011769884144	378.233411098472	880.804847989674	39.381591785002	354.112656756829	1086.392520077761	1158.071840725354	168.228637744040	1339.859492679231	1164.947526030046	225.219714313118	694.823014687603	1096.610960653256	709.811480631008	705.785510749150	836.083965660877	728.728558199282	
127	36.543000000000	690.659116517242	996.562797873697	445.649346775481	924.810023016031	1430.888069537064	332.003313484075	977.444681883164	1350.410973391445	509.777398501442	851.316186707772	1419.569419675037	658.269544466466	868.181118224537	1484.081754172233	483.690516496171	893.104728479455	927.895416468546	608.257571147939	932.926739070883	951.662613253606	336.451225798207	966.255728943704	751.111489809006	582.171263423029	901.289081778741	629.067062849060	641.086621078938	994.650392173541	592.648207017378	568.790180402896	1012.601853657281	511.331884283019	581.243403579715	928.779768018652	719.774362213123	368.703416269492	821.819641103332	620.694161394041	294.844461216338	871.326891281550	531.335818136488	371.402798713156	853.296158037055	464.881812070106	381.688488690483	816.816734895799	398.221916475875	370.052921628746	714.397280744983	298.620099162656	312.122071456744	735.750904903938	183.463195945136	390.550045183236	1004.236604406939	419.714996654153	591.576189724246	952.302091812365	304.566288976057	652.915296581885	1024.393991419409	221.093553668383	601.060998225345	933.769178747067	40.020224063943	570.315721386392	1093.879649741541	112.566214748101	611.940206878085	1017.477847680960	36.300444470123	643.249278565262	1218.069102344464	78.012551559019	636.058184663807	584.322208850279	37.973023435689	422.980531488638	662.307012722902	34.909682163310	346.527765167510	746.127559841497	95.140324779604	378.179407661693	874.726727444052	39.266209747868	354.055959716817	1087.280925369533	1156.026114402487	174.152582439331	1340.701965560749	1165.830850208848	231.659584563837	701.373866219965	1092.720221386369	715.222722928252	721.900808063969	832.768467417036	735.731599355495	
